# xmcd CD database file
#
# Track frame offsets:
#	150
#	30869
#	58937
#	82506
#	125238
#	138671
#	161075
#	182344
#	206940
#
# Disc length: 3106 seconds
#
# Revision: 0
# Processed by: cddbd v1.4PL0 Copyright (c) Steve Scherf et al.
# Submitted via: CDex 1.50beta9
#
DISCID=780c2009
DTITLE=Salfellner/Abrams/Gradischnig/Kent - We Three We See
DYEAR=2001
DGENRE=Jazz
TTITLE0=Stablemates
TTITLE1=Daddycation
TTITLE2=Carryisms
TTITLE3=Faces of Hope
TTITLE4=Evidence
TTITLE5=Mittas Dance
TTITLE6=Aphorism
TTITLE7=More Than A Thought
TTITLE8=We See
EXTD=YEAR: 2001
EXTT0=
EXTT1=
EXTT2=
EXTT3=
EXTT4=
EXTT5=
EXTT6=
EXTT7=
EXTT8=
PLAYORDER=
